HIERARCHY
ROOT Hips
{
	OFFSET 0.000000 89.005402 0.000000
	CHANNELS 6 Xposition Yposition Zposition Xrotation Yrotation Zrotation
	JOINT Spine
	{
		OFFSET 0.116900 10.681000 0.373400
		CHANNELS 3 Xrotation Yrotation Zrotation
		JOINT Spine1
		{
			OFFSET 0.000000 13.840401 0.053500
			CHANNELS 3 Xrotation Yrotation Zrotation
			JOINT Spine2
			{
				OFFSET 0.000000 14.712700 -0.366200
				CHANNELS 3 Xrotation Yrotation Zrotation
				JOINT Neck
				{
					OFFSET 0.000000 35.415497 -3.314200
					CHANNELS 3 Xrotation Yrotation Zrotation
					JOINT Head
					{
						OFFSET 0.000000 16.899200 1.218300
						CHANNELS 3 Xrotation Yrotation Zrotation
						JOINT HeadTop_End
						{
							OFFSET 0.000000 22.206207 2.192500
							CHANNELS 3 Xrotation Yrotation Zrotation
							End Site
							{
								OFFSET 0.000000 22.314178 0.000000
							}
						}
					}
				}
				JOINT LeftShoulder
				{
					OFFSET 12.896400 26.716293 -4.548400
					CHANNELS 3 Xrotation Yrotation Zrotation
					JOINT LeftArm
					{
						OFFSET 19.027000 -4.857010 -1.718400
						CHANNELS 3 Xrotation Yrotation Zrotation
						JOINT LeftForeArm
						{
							OFFSET 24.179897 0.000000 0.000000
							CHANNELS 3 Xrotation Yrotation Zrotation
							JOINT LeftHand
							{
								OFFSET 27.156403 0.000000 0.000000
								CHANNELS 3 Xrotation Yrotation Zrotation
								JOINT LeftHandIndex1
								{
									OFFSET 16.441200 0.000000 0.000000
									CHANNELS 3 Xrotation Yrotation Zrotation
									JOINT LeftHandIndex2
									{
										OFFSET 4.821899 0.000000 0.000000
										CHANNELS 3 Xrotation Yrotation Zrotation
										JOINT LeftHandIndex3
										{
											OFFSET 6.386497 0.000000 0.000000
											CHANNELS 3 Xrotation Yrotation Zrotation
											JOINT LeftHandIndex4
											{
												OFFSET 5.188988 0.000000 0.000000
												CHANNELS 3 Xrotation Yrotation Zrotation
												End Site
												{
													OFFSET -0.178703 5.185913 0.000177
												}
											}
										}
									}
								}
								JOINT LeftHandThumb1
								{
									OFFSET 6.534897 -5.032593 5.900300
									CHANNELS 3 Xrotation Yrotation Zrotation
									JOINT LeftHandThumb2
									{
										OFFSET 3.818176 -2.204422 2.204423
										CHANNELS 3 Xrotation Yrotation Zrotation
										JOINT LeftHandThumb3
										{
											OFFSET 3.252098 -1.877594 1.877601
											CHANNELS 3 Xrotation Yrotation Zrotation
											JOINT LeftHandThumb4
											{
												OFFSET 5.251778 -3.032120 3.032117
												CHANNELS 3 Xrotation Yrotation Zrotation
												End Site
												{
													OFFSET 0.000023 6.780014 0.000000
												}
											}
										}
									}
								}
							}
						}
					}
				}
				JOINT RightShoulder
				{
					OFFSET -12.896300 26.716293 -4.548400
					CHANNELS 3 Xrotation Yrotation Zrotation
					JOINT RightArm
					{
						OFFSET -19.027000 -4.857010 -1.718400
						CHANNELS 3 Xrotation Yrotation Zrotation
						JOINT RightForeArm
						{
							OFFSET -24.179897 0.000000 0.000000
							CHANNELS 3 Xrotation Yrotation Zrotation
							JOINT RightHand
							{
								OFFSET -27.156403 0.000000 0.000000
								CHANNELS 3 Xrotation Yrotation Zrotation
								JOINT RightHandThumb1
								{
									OFFSET -6.591202 -4.852203 5.988100
									CHANNELS 3 Xrotation Yrotation Zrotation
									JOINT RightHandThumb2
									{
										OFFSET -3.818176 -2.204422 2.204423
										CHANNELS 3 Xrotation Yrotation Zrotation
										JOINT RightHandThumb3
										{
											OFFSET -3.252098 -1.877594 1.877601
											CHANNELS 3 Xrotation Yrotation Zrotation
											JOINT RightHandThumb4
											{
												OFFSET -5.251778 -3.032120 3.032117
												CHANNELS 3 Xrotation Yrotation Zrotation
												End Site
												{
													OFFSET -0.000023 6.780014 0.000000
												}
											}
										}
									}
								}
								JOINT RightHandIndex1
								{
									OFFSET -16.029404 0.000000 0.000000
									CHANNELS 3 Xrotation Yrotation Zrotation
									JOINT RightHandIndex2
									{
										OFFSET -5.213303 0.000000 0.000000
										CHANNELS 3 Xrotation Yrotation Zrotation
										JOINT RightHandIndex3
										{
											OFFSET -6.386528 0.000000 0.000000
											CHANNELS 3 Xrotation Yrotation Zrotation
											JOINT RightHandIndex4
											{
												OFFSET -5.189026 0.000000 0.000000
												CHANNELS 3 Xrotation Yrotation Zrotation
												End Site
												{
													OFFSET 0.236702 5.183624 0.001972
												}
											}
										}
									}
								}
							}
						}
					}
				}
			}
		}
	}
	JOINT LeftUpLeg
	{
		OFFSET 14.073000 -7.904099 -1.463000
		CHANNELS 3 Xrotation Yrotation Zrotation
		JOINT LeftLeg
		{
			OFFSET -0.109806 -34.073280 4.093200
			CHANNELS 3 Xrotation Yrotation Zrotation
			JOINT LeftFoot
			{
				OFFSET 0.109806 -29.899420 -6.319000
				CHANNELS 3 Xrotation Yrotation Zrotation
				JOINT LeftToeBase
				{
					OFFSET 1.551100 -14.988700 20.535801
					CHANNELS 3 Xrotation Yrotation Zrotation
					JOINT LeftToe_End
					{
						OFFSET 0.221200 0.570800 13.248301
						CHANNELS 3 Xrotation Yrotation Zrotation
						End Site
						{
							OFFSET 0.000000 13.262435 0.000000
						}
					}
				}
			}
		}
	}
	JOINT RightUpLeg
	{
		OFFSET -13.839300 -7.904099 -1.463000
		CHANNELS 3 Xrotation Yrotation Zrotation
		JOINT RightLeg
		{
			OFFSET 0.109694 -34.073219 4.093300
			CHANNELS 3 Xrotation Yrotation Zrotation
			JOINT RightFoot
			{
				OFFSET -0.109694 -29.899384 -6.319200
				CHANNELS 3 Xrotation Yrotation Zrotation
				JOINT RightToeBase
				{
					OFFSET -1.551100 -14.988700 20.535801
					CHANNELS 3 Xrotation Yrotation Zrotation
					JOINT RightToe_End
					{
						OFFSET -0.221200 0.570900 13.248299
						CHANNELS 3 Xrotation Yrotation Zrotation
						End Site
						{
							OFFSET 0.000000 13.262440 0.000000
						}
					}
				}
			}
		}
	}
}
MOTION
Frames: 6
Frame Time: 0.033333
-0.408758 19.387863 28.911083 -1.828171 -1.108992 -3.329086 8.906861 1.388598 -1.011541 10.848772 1.490795 -0.571438 10.831259 1.620311 -0.686567 2.935067 -0.400257 3.480633 -22.846648 2.358526 -1.330517 -0.000000 -0.000000 -0.000000 4.122863 -14.369924 2.345107 -41.210291 1.016683 -32.643154 0.000022 -112.948625 0.000033 -16.922880 -21.426677 -1.401896 0.223859 3.719714 -13.395914 0.179727 1.441444 -14.214352 0.180186 1.443252 -14.232589 0.000001 -0.000001 -0.000001 8.190347 26.718066 -11.526461 11.595242 14.435089 40.279108 29.278514 -36.129915 64.641347 0.000003 0.000000 -0.000001 4.567007 18.551813 6.600352 -45.985014 5.884717 31.684506 0.000091 108.616626 -0.000098 -15.317688 6.310262 6.795524 6.282288 -24.861262 11.879982 11.949931 -16.807494 -40.834289 31.746730 37.910572 -64.296382 -0.000002 0.000000 0.000000 0.194067 -3.439395 14.364666 0.178977 -1.280001 15.919223 0.179506 -1.281826 15.942773 -0.000002 0.000001 0.000000 -149.774232 -0.302318 8.024357 101.911122 -8.243153 -0.972694 52.391109 -0.599974 4.571029 -4.139674 -0.000002 0.000001 0.000000 -0.000000 -0.000000 -149.672695 -3.974214 -10.649235 108.534452 -2.603535 2.723069 44.038973 -4.559550 -11.778254 -4.077573 -0.000002 0.000001 0.000000 0.000000 0.000000 
-0.422337 19.363052 28.870235 -2.352314 -0.980188 -3.298629 8.847807 1.405346 -0.989431 10.762486 1.501692 -0.568078 10.745612 1.624346 -0.681441 2.628644 -0.465595 3.507798 -22.947670 2.107715 -1.421714 -0.000000 0.000000 0.000000 4.229650 -13.940872 2.510797 -41.133585 -0.173034 -32.786667 0.000038 -111.916918 0.000018 -16.332792 -21.473001 -1.202941 0.220683 3.706362 -13.261757 0.172962 1.414443 -13.942661 0.174681 1.421343 -14.011985 -0.000002 -0.000001 -0.000001 8.190343 26.718078 -11.526458 11.595242 14.435075 40.279108 29.278501 -36.129921 64.641354 -0.000000 0.000000 0.000000 4.745766 18.042196 6.728925 -46.250421 6.748045 32.033054 0.000096 107.926906 -0.000117 -15.087772 6.530804 6.935075 6.282289 -24.861276 11.879971 11.949926 -16.807467 -40.834296 31.746723 37.910545 -64.296355 0.000001 0.000001 -0.000000 0.194101 -3.439532 14.366418 0.178064 -1.276810 15.878605 0.180067 -1.283807 15.968060 0.000002 -0.000000 0.000000 -149.309151 -0.125117 8.179779 101.921715 -8.276536 -0.999995 52.436879 -0.592596 4.745813 -4.104767 -0.000002 -0.000002 0.000000 -0.000000 -0.000000 -149.274044 -3.733375 -10.444287 108.619255 -2.689511 2.688006 44.131683 -4.488900 -11.573165 -4.085004 -0.000003 0.000000 -0.000000 -0.000000 0.000000 
-0.445210 19.356544 28.686619 -3.370721 -0.901425 -3.275486 8.748374 1.414743 -0.957157 10.648196 1.510446 -0.565233 10.632088 1.625294 -0.675417 2.359169 -0.487717 3.470718 -22.879962 1.917078 -1.279967 0.000000 -0.000000 0.000000 4.337834 -13.411590 2.610457 -41.081621 -1.630574 -32.837999 0.000013 -110.781522 0.000013 -15.566822 -21.659232 -0.941305 0.217471 3.692704 -13.124683 0.164477 1.379799 -13.594325 0.168036 1.394512 -13.742096 -0.000001 -0.000001 -0.000001 8.190342 26.718057 -11.526456 11.595243 14.435089 40.279111 29.278480 -36.129921 64.641341 -0.000000 -0.000001 -0.000001 4.913122 17.582007 6.933753 -46.289841 7.749448 32.328231 0.000039 107.029146 -0.000066 -14.835518 6.913863 6.727702 6.282309 -24.861288 11.879972 11.949924 -16.807492 -40.834293 31.746712 37.910589 -64.296368 -0.000003 0.000001 -0.000000 0.193495 -3.437073 14.335141 0.175925 -1.269258 15.782289 0.180185 -1.284192 15.972961 -0.000001 -0.000000 -0.000002 -148.271577 -0.045851 8.315050 101.847772 -8.327145 -1.001899 52.470152 -0.615860 4.819471 -4.050878 -0.000002 -0.000000 0.000000 0.000000 -0.000000 -148.270894 -3.522558 -10.147444 108.544868 -2.755355 2.666176 44.274376 -4.406773 -11.321498 -4.069993 -0.000000 -0.000001 0.000000 -0.000000 -0.000000 
-0.465778 19.361832 28.380404 -4.878311 -0.830765 -3.254123 8.627046 1.420968 -0.899629 10.522727 1.518432 -0.547894 10.507811 1.623274 -0.653425 2.284136 -0.475031 3.376881 -22.722477 1.814778 -1.098039 -0.000000 0.000000 0.000000 4.445820 -12.976550 2.573588 -40.978782 -3.237095 -32.672179 0.000078 -109.572722 0.000050 -15.120212 -22.094374 -0.648563 0.214305 3.679061 -12.987911 0.154814 1.339243 -13.187276 0.160666 1.363976 -13.435385 -0.000000 0.000000 -0.000000 8.190344 26.718073 -11.526461 11.595254 14.435070 40.279091 29.278501 -36.129901 64.641354 -0.000000 0.000000 -0.000003 5.079082 17.105685 7.116907 -46.080889 8.901926 32.583995 0.000063 105.851881 -0.000050 -14.412288 7.308156 6.576780 6.282308 -24.861264 11.879967 11.949932 -16.807460 -40.834276 31.746730 37.910576 -64.296361 -0.000002 -0.000000 0.000000 0.192275 -3.432376 14.275468 0.172781 -1.258062 15.639421 0.179873 -1.283151 15.959555 0.000002 -0.000001 0.000001 -146.667603 -0.027090 8.342271 101.712561 -8.396421 -0.964349 52.460590 -0.658073 4.720078 -3.965576 0.000002 0.000001 -0.000000 0.000000 -0.000000 -146.707751 -3.345285 -9.812237 108.353158 -2.808069 2.654826 44.449334 -4.339251 -11.099849 -4.032372 -0.000001 -0.000002 0.000000 -0.000000 -0.000000 
-0.475502 19.365929 27.996462 -6.786566 -0.780398 -3.232224 8.464599 1.408429 -0.834769 10.339233 1.501067 -0.520981 10.325639 1.596553 -0.620614 2.432373 -0.448703 3.319277 -22.278974 1.874764 -1.079918 -0.000001 -0.000000 -0.000000 4.552558 -12.610581 2.541198 -40.809615 -4.749955 -32.548758 0.000040 -108.204246 0.000057 -14.994377 -22.441707 -0.574608 0.211256 3.665768 -12.854608 0.144516 1.294555 -12.739478 0.152876 1.330971 -13.104326 0.000001 -0.000001 -0.000002 8.190344 26.718064 -11.526459 11.595253 14.435075 40.279108 29.278487 -36.129904 64.641347 -0.000002 -0.000001 0.000000 5.238337 16.662422 7.303948 -45.602311 10.228980 32.791906 -0.000011 104.179776 -0.000002 -13.673059 7.624665 6.440495 6.282298 -24.861258 11.879996 11.949933 -16.807508 -40.834303 31.746723 37.910572 -64.296361 0.000003 -0.000001 0.000000 0.190608 -3.425779 14.192009 0.168848 -1.243923 15.459146 0.179226 -1.280816 15.929931 0.000000 -0.000003 0.000001 -144.627862 -0.111940 8.295288 101.589536 -8.411839 -0.922002 52.360660 -0.753223 4.539059 -3.822809 -0.000002 -0.000000 0.000000 0.000000 0.000000 -144.658352 -3.083673 -9.490792 108.069609 -2.830255 2.675341 44.742568 -4.181964 -10.607163 -4.123843 0.000003 0.000000 -0.000000 0.000001 0.000000 
-0.467474 19.364159 27.557774 -8.983921 -0.819236 -3.228552 8.251284 1.362194 -0.783548 10.070411 1.444921 -0.493494 10.057707 1.535476 -0.586959 2.694021 -0.396957 3.299431 -21.374327 2.112217 -1.075134 0.000000 -0.000000 0.000000 4.655884 -12.147829 2.603458 -40.539604 -6.044207 -32.744627 -0.000017 -106.689597 -0.000006 -14.432470 -22.718363 -0.336165 0.208376 3.653137 -12.727973 0.134085 1.247494 -12.268855 0.145017 1.296744 -12.761373 0.000001 -0.000001 -0.000001 8.190344 26.718071 -11.526446 11.595255 14.435064 40.279111 29.278501 -36.129911 64.641341 0.000002 0.000002 -0.000003 5.378182 16.376869 7.593174 -44.823280 11.668373 32.873769 0.000002 102.049105 -0.000003 -12.807304 8.127563 6.020017 6.282291 -24.861276 11.879978 11.949922 -16.807484 -40.834303 31.746726 37.910565 -64.296361 -0.000003 -0.000001 0.000001 0.188561 -3.417677 14.089339 0.164341 -1.227555 15.250600 0.178244 -1.277393 15.886170 0.000003 0.000001 0.000002 -142.305038 -0.338707 8.265245 101.525769 -8.353064 -0.891596 52.165498 -0.862627 4.372778 -3.628050 -0.000000 -0.000002 0.000000 0.000000 -0.000000 -142.269944 -2.855954 -9.141543 107.726167 -2.797162 2.724450 45.037564 -4.012110 -10.081895 -4.190464 -0.000003 -0.000001 -0.000000 0.000001 0.000000 
